<svg width="17" height="22" viewBox="0 0 17 22" fill="none" xmlns="http://www.w3.org/2000/svg">
<path d="M7.45248 20.8604C7.45248 21.4777 7.95295 21.9782 8.57031 21.9782C9.18768 21.9782 9.68815 21.4777 9.68815 20.8604L7.45248 20.8604ZM9.36074 0.694128C8.9242 0.257587 8.21643 0.257587 7.77989 0.694128L0.666031 7.80798C0.229489 8.24452 0.229489 8.9523 0.66603 9.38884C1.10257 9.82538 1.81035 9.82538 2.24689 9.38884L8.57031 3.06541L14.8937 9.38884C15.3303 9.82538 16.0381 9.82538 16.4746 9.38884C16.9111 8.9523 16.9111 8.24452 16.4746 7.80798L9.36074 0.694128ZM9.68815 20.8604L9.68815 1.48456L7.45248 1.48456L7.45248 20.8604L9.68815 20.8604Z" fill="#7E6368"/>
</svg>
