<svg width="74" height="93" viewBox="0 0 74 93" fill="none" xmlns="http://www.w3.org/2000/svg">
<path d="M42 5C42 2.23858 39.7614 1.20706e-07 37 0C34.2386 -1.20706e-07 32 2.23858 32 5L42 5ZM33.4645 91.5355C35.4171 93.4882 38.5829 93.4882 40.5355 91.5355L72.3553 59.7157C74.308 57.7631 74.308 54.5973 72.3553 52.6447C70.4027 50.692 67.2369 50.692 65.2843 52.6447L37 80.9289L8.71573 52.6447C6.76311 50.692 3.59728 50.692 1.64466 52.6447C-0.307963 54.5973 -0.307963 57.7631 1.64466 59.7157L33.4645 91.5355ZM32 5L32 88L42 88L42 5L32 5Z" fill="#F5F5DC"/>
</svg>
