<svg width="84" height="81" viewBox="0 0 84 81" fill="none" xmlns="http://www.w3.org/2000/svg">
<path d="M79.7593 73.1652H79.6755V67.8733C79.6755 67.2006 79.1301 66.6552 78.4574 66.6552H77.0714V39.1459H77.1554C78.5451 39.1459 79.6755 38.0155 79.6755 36.6258V33.9381H79.7593C81.8669 33.9381 83.5814 32.2234 83.5814 30.116C83.5814 28.1455 82.0825 26.5188 80.1651 26.3157C71.5499 15.6662 59.1556 9.19486 45.66 8.20117L44.7193 2.55655C44.4971 1.22226 43.3541 0.253906 42.0017 0.253906C40.6492 0.253906 39.5062 1.2221 39.284 2.55606L38.3433 8.20084C24.8477 9.1947 12.4534 15.666 3.83824 26.3153C1.92086 26.5187 0.421875 28.1453 0.421875 30.1158C0.421875 32.2234 2.13655 33.9379 4.24397 33.9379H4.32778V36.6257C4.32778 38.0153 5.45823 39.1458 6.8479 39.1458H6.93171V66.6552H5.54593C4.87319 66.6552 4.32778 67.2006 4.32778 67.8733V73.1652H4.24397C2.13655 73.1652 0.421875 74.8799 0.421875 76.9874C0.421875 79.095 2.13655 80.8095 4.24397 80.8095H79.7593C81.8669 80.8095 83.5814 79.0948 83.5814 76.9874C83.5814 74.88 81.8668 73.1652 79.7593 73.1652ZM77.2392 73.1652H55.8463L54.2169 69.0915H77.2392V73.1652ZM19.7839 66.6553V59.9777H22.5556V66.6553H19.7839ZM14.5761 66.6553V59.9777H17.3476V66.6553H14.5761ZM32.9715 39.1459V66.6553H30.2V58.761C30.2 58.7605 30.2 58.7601 30.2 58.7594C30.2 58.7588 30.2 58.7584 30.2 58.7578V43.1355C30.2 42.4627 29.6546 41.9173 28.9818 41.9173C28.3091 41.9173 27.7637 42.4627 27.7637 43.1355V57.5411H14.5761V39.1459H32.9715ZM48.5953 39.1459V66.6553H35.4078V39.1459H48.5953ZM53.8033 39.1459V66.6553H51.0316V39.1459H53.8033ZM69.4271 39.1459V57.5414H56.2396V39.1459H69.4271ZM66.6557 66.6553V59.9777H69.4273V66.6553H66.6557ZM61.4477 66.6553V59.9777H64.2194V66.6553H61.4477ZM56.2396 66.6553V59.9777H59.0112V66.6553H56.2396ZM24.992 59.9777H27.7635V66.6553H24.992V59.9777ZM51.5928 69.0917L53.2222 73.1653H30.7811L32.4105 69.0917H51.5928ZM74.6351 66.6553H71.8636V58.761C71.8636 58.7605 71.8636 58.7601 71.8636 58.7594C71.8636 58.7588 71.8636 58.7584 71.8636 58.7578V39.1459H74.6351V66.6553ZM41.6872 2.95659C41.7129 2.80229 41.8452 2.69022 42.0017 2.69022C42.1581 2.69022 42.2904 2.80213 42.3161 2.95659L43.1701 8.08049C42.7813 8.07139 42.392 8.06571 42.0017 8.06571C41.6114 8.06571 41.222 8.07139 40.8332 8.08049L41.6872 2.95659ZM2.85819 30.1158C2.85819 29.3516 3.47994 28.73 4.24397 28.73H64.1356C64.8083 28.73 65.3537 28.1846 65.3537 27.5119C65.3537 26.8391 64.8083 26.2937 64.1356 26.2937H7.04492C15.9227 16.2262 28.5223 10.5022 42.0017 10.5022C55.481 10.5022 68.0806 16.2262 76.9584 26.2937H69.3434C68.6707 26.2937 68.1253 26.8391 68.1253 27.5119C68.1253 28.1846 68.6707 28.73 69.3434 28.73H79.7593C80.5235 28.73 81.1451 29.3518 81.1451 30.1158C81.1451 30.8798 80.5234 31.5016 79.7593 31.5016H4.24397C3.47994 31.5016 2.85819 30.88 2.85819 30.1158ZM6.76409 36.6258V33.9381H77.2391V36.6258C77.2391 36.6721 77.2015 36.7096 77.1553 36.7096H6.8479C6.80177 36.7096 6.76409 36.6719 6.76409 36.6258ZM9.36802 39.1459H12.1397V66.6553H9.36802V39.1459ZM79.7593 78.3732H4.24397C3.47978 78.3732 2.85819 77.7515 2.85819 76.9874C2.85819 76.2234 3.47994 75.6017 4.24397 75.6017H9.45216C10.1249 75.6017 10.6703 75.0563 10.6703 74.3835C10.6703 73.7108 10.1249 73.1653 9.45216 73.1653H6.76409V69.0917H29.7865L28.1571 73.1653H14.6595C13.9868 73.1653 13.4414 73.7108 13.4414 74.3835C13.4414 75.0563 13.9868 75.6017 14.6595 75.6017H79.7593C80.5235 75.6017 81.1451 76.2234 81.1451 76.9874C81.1451 77.7515 80.5234 78.3732 79.7593 78.3732Z" fill="black"/>
<path d="M60.8835 23.2539H23.5296H20.6562C21.8421 20.2855 27.5524 14.3486 40.9067 14.3486C54.2611 14.3486 59.7889 20.2855 60.8835 23.2539Z" fill="#957D7E"/>
</svg>
