<svg width="105" height="81" viewBox="0 0 105 81" fill="none" xmlns="http://www.w3.org/2000/svg">
<path d="M13.6512 43.7588C13.8839 45.5648 14.4966 47.301 15.4491 48.8529C16.4016 50.4049 17.6721 51.7374 19.177 52.7626L50.8842 73.0541C51.1419 73.2207 51.4418 73.3106 51.7487 73.3133C52.0557 73.316 52.3571 73.2314 52.6177 73.0693L84.78 53.2285C86.3836 52.1582 87.722 50.7363 88.6934 49.0709C89.6648 47.4056 90.2437 45.5406 90.3859 43.6179C90.3859 43.6179 90.3859 15.2761 90.3859 14.977C90.2162 12.8399 89.5257 10.7769 88.3747 8.96828C87.2237 7.15963 85.6473 5.66039 83.7831 4.60158C79.6104 2.15405 74.9302 0.700146 70.1051 0.352546C65.28 0.00494489 60.4397 0.772978 55.9592 2.59713L52.115 4.23536L48.2946 2.53212C43.8431 0.632301 39.0142 -0.217857 34.1815 0.0474317C29.3488 0.31272 24.642 1.68634 20.4252 4.062C18.5431 5.09184 16.9418 6.56675 15.761 8.35795C14.5802 10.1492 13.8559 12.2022 13.6512 14.3378C13.6274 14.7018 13.6512 43.7588 13.6512 43.7588ZM16.8822 14.483C17.0798 12.8728 17.6641 11.3343 18.5852 9.99893C19.5063 8.66352 20.7368 7.5708 22.1718 6.81406C25.9261 4.71029 30.1143 3.49878 34.4119 3.27332C38.7096 3.04786 43.0016 3.81449 46.9554 5.51387L51.4194 7.50315C51.6248 7.59114 51.846 7.63651 52.0695 7.63651C52.293 7.63651 52.5141 7.59114 52.7196 7.50315L57.2074 5.58972C61.1907 3.95901 65.4959 3.26717 69.7896 3.56779C74.0832 3.86842 78.25 5.15343 81.9672 7.3233C83.3908 8.10248 84.6044 9.21503 85.5041 10.5657C86.4038 11.9164 86.9628 13.465 87.1333 15.0789C87.0842 16.5577 86.679 18.0028 85.952 19.2915C85.2251 20.5802 84.1978 21.6745 82.9575 22.4813L51.79 41.7002L26.1352 25.2853C25.7719 25.0529 25.3312 24.9742 24.91 25.0667C24.4888 25.1591 24.1216 25.4151 23.8891 25.7783C23.6566 26.1415 23.5779 26.5822 23.6704 27.0035C23.7629 27.4247 24.0188 27.7919 24.3821 28.0244L50.8928 44.9875C51.1517 45.1531 51.4523 45.2418 51.7596 45.2432C52.0609 45.243 52.3563 45.1598 52.6134 45.0026L84.7734 25.164C85.6181 24.5379 86.4023 23.8341 87.1159 23.062V43.5638C86.9834 44.9657 86.5388 46.3201 85.8148 47.5279C85.0907 48.7356 84.1056 49.766 82.9315 50.5436L51.7705 69.7668L21.0384 50.108C19.9384 49.3664 19.0025 48.4066 18.2886 47.2884C17.5748 46.1701 17.0983 44.9171 16.8887 43.6071V30.3387C17.7684 30.9407 18.4752 31.7625 18.9386 32.7224C19.5661 34.1413 20.0454 35.6213 20.3688 37.1387L20.657 38.2525C22.0179 43.4012 25.0972 44.5887 27.5285 43.9733C28.4162 43.764 29.2647 43.4143 30.0422 42.9375C30.3152 42.7815 30.6251 42.6038 31.0477 42.3958C31.5856 42.218 32.1666 42.2193 32.7037 42.3994C33.2408 42.5795 33.7052 42.9287 34.0273 43.3947C35.3495 45.9352 36.2983 48.6531 36.8443 51.4645C37.1342 52.9331 37.5825 54.3659 38.1814 55.7378C38.8245 56.9287 39.76 57.9364 40.9 58.6662C42.0399 59.3959 43.3467 59.8237 44.6974 59.9092H44.9683C46.3033 59.9503 47.6145 59.5497 48.6986 58.7696C49.7826 57.9896 50.5791 56.8736 50.9643 55.5948C51.1507 54.9447 51.3241 54.1841 51.4887 53.4495L51.7293 52.4028C51.7461 52.2735 51.7895 52.149 51.8566 52.0372C51.9237 51.9253 52.0131 51.8285 52.1193 51.7527C52.233 51.7239 52.3513 51.7185 52.4672 51.7367C52.583 51.755 52.694 51.7966 52.7933 51.8589C57.2897 54.0606 61.0668 53.9934 64.0095 51.6617C65.4864 50.2718 66.5855 48.5291 67.2036 46.5975C67.637 45.2774 68.3229 44.0542 69.2233 42.996C70.0662 42.2072 71.0955 41.8692 73.5962 42.6103C75.8447 43.2032 78.234 42.927 80.2878 41.8367C81.0849 41.4415 81.7659 40.8465 82.2645 40.1097C82.7632 39.373 83.0624 38.5196 83.133 37.6327C83.2632 36.8142 83.4744 36.0106 83.7636 35.2339C83.8447 35.0324 83.8846 34.8167 83.8809 34.5995C83.8772 34.3823 83.83 34.1681 83.742 33.9694C83.6541 33.7708 83.5273 33.5918 83.369 33.4431C83.2108 33.2943 83.0243 33.1787 82.8206 33.1033C82.6169 33.0278 82.4002 32.9939 82.1832 33.0036C81.9662 33.0134 81.7533 33.0665 81.5572 33.1599C81.3611 33.2532 81.1857 33.385 81.0414 33.5473C80.897 33.7096 80.7867 33.8992 80.7169 34.1049C80.3505 35.087 80.0833 36.1033 79.9194 37.1387C79.7851 38.0055 79.5814 38.5992 78.9746 38.8723C77.6233 39.6425 76.0285 39.8665 74.5172 39.4985C73.283 38.9727 71.927 38.8001 70.6005 38.9998C69.2739 39.1995 68.0289 39.7638 67.0043 40.6297C65.7476 41.9879 64.7933 43.5973 64.2045 45.3515C63.7658 46.7612 63.0079 48.0507 61.9899 49.1199C61.2921 49.6746 59.1598 51.3627 54.2191 48.9443C53.6866 48.6596 53.096 48.5003 52.4925 48.4785C51.889 48.4567 51.2885 48.5731 50.7368 48.8187C50.1849 49.0922 49.7028 49.4881 49.3272 49.9763C48.9517 50.4646 48.6926 51.0321 48.5698 51.6357L48.3163 52.7387C48.1668 53.4061 48.0129 54.1061 47.8439 54.689C47.6279 55.3042 47.2146 55.8308 46.6682 56.1866C46.1219 56.5425 45.4732 56.7078 44.8231 56.6566C44.029 56.5881 43.2647 56.322 42.5997 55.8826C41.9347 55.4432 41.3902 54.8444 41.0158 54.1408C40.5928 53.0042 40.251 51.839 39.9929 50.6541C39.3795 47.4394 38.2543 44.3439 36.6601 41.4856C35.8935 40.3934 34.7751 39.5975 33.492 39.231C32.2088 38.8646 30.8388 38.9498 29.611 39.4725C29.1147 39.7174 28.7442 39.9254 28.4256 40.1096C27.9065 40.4405 27.3339 40.6788 26.7332 40.8139C24.9997 41.2473 24.1047 38.5819 23.797 37.416L23.5174 36.3326C23.1412 34.5989 22.5841 32.9096 21.8554 31.2922C21.3748 30.24 20.6868 29.2956 19.8326 28.5156C18.9785 27.7355 17.9757 27.1358 16.8843 26.7524V22.62C17.5481 23.3461 18.2731 24.0139 19.0513 24.6157C19.3918 24.8813 19.8239 25.0006 20.2524 24.9476C20.681 24.8946 21.0709 24.6735 21.3364 24.3329C21.6019 23.9924 21.7213 23.5604 21.6682 23.1318C21.6152 22.7033 21.3941 22.3134 21.0536 22.0479C19.7956 21.2206 18.7578 20.0996 18.0299 18.7816C17.3021 17.4636 16.9059 15.9883 16.8757 14.483H16.8822Z" fill="black"/>
<path d="M96.972 40.5344C96.8107 40.395 96.6235 40.2887 96.421 40.2216C96.2186 40.1545 96.0049 40.128 95.7922 40.1435C95.5796 40.159 95.372 40.2162 95.1814 40.3119C94.9909 40.4076 94.821 40.5399 94.6816 40.7013C94.5421 40.8626 94.4358 41.0499 94.3687 41.2523C94.3017 41.4547 94.2751 41.6684 94.2906 41.8811C94.3061 42.0938 94.3633 42.3013 94.459 42.4919C94.5548 42.6825 94.6871 42.8523 94.8484 42.9918C96.5594 44.2625 97.9743 45.8893 98.9956 47.7598C100.017 49.6304 100.62 51.7003 100.764 53.8266C100.764 66.2737 78.4444 76.7966 52.0074 76.7966C25.5703 76.7966 3.25046 66.2802 3.25046 53.8331C3.40037 51.6691 4.0229 49.5642 5.07421 47.6668C6.12551 45.7694 7.58003 44.1255 9.33532 42.8509C9.66377 42.5716 9.86781 42.1733 9.90256 41.7435C9.93731 41.3138 9.79991 40.8878 9.5206 40.5593C9.24128 40.2309 8.84293 40.0269 8.41318 39.9921C7.98343 39.9574 7.55747 40.0948 7.22902 40.3741C2.50069 44.3916 0 49.0463 0 53.8331C0 68.5317 22.8442 80.0535 52.0074 80.0535C81.1705 80.0535 104.015 68.5382 104.015 53.8331C103.881 51.2372 103.181 48.7018 101.965 46.4046C100.748 44.1074 99.0442 42.1039 96.972 40.5344Z" fill="#7E6368"/>
<path d="M27.5915 16.5873C27.733 16.6245 27.8786 16.6434 28.0249 16.6436C28.3815 16.6428 28.728 16.5249 29.0111 16.308C29.2941 16.0911 29.4981 15.7873 29.5916 15.4431L30.4758 12.1927C30.5884 11.7766 30.5312 11.3328 30.3166 10.9589C30.102 10.585 29.7477 10.3117 29.3316 10.1991C28.9155 10.0864 28.4717 10.1437 28.0978 10.3582C27.724 10.5728 27.4506 10.9271 27.338 11.3432L26.456 14.5937C26.3424 15.0086 26.3982 15.4517 26.6112 15.8255C26.8241 16.1993 27.1767 16.4733 27.5915 16.5873Z" fill="#7E6368"/>
<path d="M50.3714 31.4483C50.3322 31.6581 50.3347 31.8737 50.3789 32.0826C50.423 32.2915 50.5079 32.4896 50.6286 32.6657C50.7493 32.8418 50.9036 32.9924 51.0826 33.1088C51.2615 33.2253 51.4617 33.3053 51.6715 33.3444L53.3228 33.6542C53.4221 33.6725 53.523 33.6812 53.624 33.6803C54.0285 33.6792 54.418 33.5273 54.7165 33.2543C55.0149 32.9814 55.2009 32.6069 55.238 32.2041C55.2751 31.8014 55.1607 31.3992 54.9171 31.0763C54.6735 30.7534 54.3183 30.5329 53.9209 30.458L52.2675 30.1503C51.8439 30.0711 51.4062 30.1633 51.0507 30.4067C50.6951 30.6501 50.4508 31.0248 50.3714 31.4483Z" fill="#7E6368"/>
<path d="M39.4116 13.9085C39.7681 13.909 40.1147 13.7917 40.3976 13.5748L41.7325 12.552C41.9019 12.4222 42.0442 12.2603 42.1511 12.0756C42.258 11.8909 42.3274 11.6869 42.3555 11.4753C42.3836 11.2637 42.3697 11.0487 42.3147 10.8424C42.2596 10.6362 42.1645 10.4429 42.0347 10.2734C41.905 10.1039 41.7431 9.9617 41.5584 9.85479C41.3736 9.74789 41.1697 9.67842 40.9581 9.65035C40.7465 9.62228 40.5314 9.63616 40.3252 9.69119C40.119 9.74623 39.9256 9.84134 39.7562 9.97111L38.4213 10.9939C38.1505 11.2 37.9514 11.486 37.852 11.8115C37.7526 12.1369 37.7581 12.4854 37.8675 12.8076C37.977 13.1298 38.185 13.4095 38.4621 13.607C38.7392 13.8046 39.0713 13.91 39.4116 13.9085Z" fill="#7E6368"/>
<path d="M61.5787 12.5131L63.1519 13.109C63.3539 13.1989 63.572 13.2467 63.7931 13.2494C64.0141 13.2521 64.2334 13.2097 64.4374 13.1248C64.6415 13.0398 64.8261 12.9142 64.98 12.7554C65.1338 12.5967 65.2537 12.4083 65.3322 12.2016C65.4107 11.995 65.4463 11.7745 65.4366 11.5537C65.427 11.3328 65.3725 11.1163 65.2763 10.9172C65.1801 10.7182 65.0444 10.5409 64.8773 10.3961C64.7103 10.2513 64.5155 10.1422 64.3048 10.0753L62.7316 9.47936C62.5296 9.38946 62.3115 9.34169 62.0904 9.33899C61.8694 9.33629 61.6501 9.3787 61.446 9.46364C61.242 9.54858 61.0574 9.67425 60.9035 9.83298C60.7497 9.99171 60.6298 10.1802 60.5513 10.3868C60.4728 10.5934 60.4372 10.8139 60.4468 11.0347C60.4565 11.2556 60.511 11.4721 60.6072 11.6712C60.7034 11.8702 60.8391 12.0475 61.0062 12.1923C61.1732 12.3371 61.368 12.4462 61.5787 12.5131Z" fill="#7E6368"/>
<path d="M64.3798 24.3926L62.4101 27.1186C62.2848 27.2917 62.1949 27.4878 62.1456 27.6957C62.0962 27.9035 62.0883 28.1191 62.1223 28.33C62.1563 28.541 62.2316 28.7431 62.3438 28.9249C62.456 29.1067 62.603 29.2646 62.7763 29.3896C63.1257 29.6419 63.5611 29.745 63.9865 29.6763C64.412 29.6076 64.7928 29.3728 65.0451 29.0234L67.0127 26.2973C67.2653 25.9479 67.3687 25.5124 67.3003 25.0868C67.2318 24.6611 66.997 24.28 66.6476 24.0274C66.2982 23.7748 65.8627 23.6714 65.437 23.7399C65.0113 23.8084 64.6303 24.0431 64.3777 24.3926H64.3798Z" fill="#7E6368"/>
<path d="M48.9993 21.6406C49.3266 21.9205 49.7518 22.0591 50.1813 22.0258C50.6108 21.9925 51.0095 21.79 51.2897 21.4629L53.4762 18.908C53.7412 18.5789 53.8675 18.1595 53.8285 17.7387C53.7894 17.318 53.5881 16.929 53.2671 16.6542C52.9461 16.3795 52.5307 16.2405 52.109 16.2668C51.6873 16.2931 51.2924 16.4827 51.008 16.7952L48.8216 19.3501C48.6824 19.5119 48.5766 19.6997 48.5101 19.9025C48.4437 20.1054 48.418 20.3194 48.4345 20.5322C48.4511 20.745 48.5094 20.9525 48.6063 21.1427C48.7033 21.3329 48.8368 21.5021 48.9993 21.6406Z" fill="#7E6368"/>
<path d="M76.1684 17.3544C76.3175 17.5071 76.4951 17.6288 76.6913 17.7128C76.8874 17.7967 77.0982 17.8412 77.3115 17.8436C77.5249 17.846 77.7366 17.8064 77.9346 17.7269C78.1326 17.6474 78.313 17.5296 78.4654 17.3804C78.618 17.231 78.7397 17.053 78.8235 16.8566C78.9073 16.6602 78.9516 16.4493 78.9538 16.2357C78.956 16.0222 78.9161 15.8104 78.8364 15.6123C78.7567 15.4142 78.6387 15.2337 78.4893 15.0812L76.1381 12.6802C75.9896 12.5243 75.8117 12.3995 75.6146 12.3129C75.4174 12.2264 75.2051 12.1798 74.9898 12.176C74.7746 12.1722 74.5607 12.2112 74.3607 12.2908C74.1606 12.3703 73.9784 12.4888 73.8245 12.6394C73.6706 12.79 73.5482 12.9696 73.4643 13.1679C73.3805 13.3662 73.3368 13.5791 73.336 13.7944C73.3351 14.0097 73.377 14.223 73.4592 14.422C73.5415 14.6209 73.6625 14.8016 73.8151 14.9534L76.1684 17.3544Z" fill="#7E6368"/>
<path d="M36.0112 25.0427L37.6754 25.2897C37.7551 25.3009 37.8355 25.3067 37.9159 25.307C38.3264 25.3069 38.7216 25.1515 39.0222 24.872C39.3227 24.5925 39.5064 24.2096 39.5363 23.8002C39.5662 23.3909 39.4401 22.9854 39.1834 22.6651C38.9266 22.3449 38.5582 22.1337 38.1522 22.0739L36.4901 21.8312C36.0636 21.7677 35.6294 21.8762 35.283 22.1328C34.9366 22.3895 34.7062 22.7732 34.6427 23.1997C34.5792 23.6261 34.6877 24.0603 34.9444 24.4067C35.201 24.7532 35.5847 24.9835 36.0112 25.047V25.0427Z" fill="#7E6368"/>
</svg>
