<svg width="80" height="80" viewBox="0 0 80 80" fill="none" xmlns="http://www.w3.org/2000/svg">
<path d="M47.0312 24.375H35.3125C34.4497 24.375 33.75 25.0747 33.75 25.9375V38.4375H30.625C29.7622 38.4375 29.0625 39.1372 29.0625 40C29.0625 40.8628 29.7622 41.5625 30.625 41.5625H33.75V47.8125H30.625C29.7622 47.8125 29.0625 48.5122 29.0625 49.375C29.0625 50.2378 29.7622 50.9375 30.625 50.9375H33.75V58.75C33.75 59.6128 34.4497 60.3125 35.3125 60.3125C36.1753 60.3125 36.875 59.6128 36.875 58.75V50.9375H49.375C50.2378 50.9375 50.9375 50.2378 50.9375 49.375C50.9375 48.5122 50.2378 47.8125 49.375 47.8125H36.875V41.5625H47.0312C52.6378 41.5625 55.5711 37.2375 55.5711 32.9653C55.5711 28.6964 52.6378 24.375 47.0312 24.375ZM47.0312 38.4375H36.875V27.5H47.0312C48.7262 27.5 50.1308 28.0764 51.0933 29.1673C51.953 30.1416 52.4461 31.5259 52.4461 32.9653C52.4461 35.6891 50.7717 38.4375 47.0312 38.4375Z" fill="black"/>
<path d="M40 9.375C23.1133 9.375 9.375 23.1133 9.375 40C9.375 56.8867 23.1133 70.625 40 70.625C56.8867 70.625 70.625 56.8867 70.625 40C70.625 23.1133 56.8867 9.375 40 9.375ZM40 67.5C24.8364 67.5 12.5 55.1636 12.5 40C12.5 24.8364 24.8364 12.5 40 12.5C55.1636 12.5 67.5 24.8364 67.5 40C67.5 55.1636 55.1636 67.5 40 67.5Z" fill="#957D7E"/>
<path d="M67.1875 68.75C68.0504 68.75 68.75 68.0504 68.75 67.1875C68.75 66.3246 68.0504 65.625 67.1875 65.625C66.3246 65.625 65.625 66.3246 65.625 67.1875C65.625 68.0504 66.3246 68.75 67.1875 68.75Z" fill="#957D7E"/>
<path d="M40 0C17.878 0 0 17.8722 0 40C0 62.122 17.8722 80 40 80C48.1506 80 55.99 77.5687 62.6705 72.9692C63.3813 72.4798 63.5606 71.507 63.0713 70.7962C62.5819 70.0855 61.6089 69.9062 60.8983 70.3955C54.7414 74.6344 47.515 76.875 40 76.875C19.667 76.875 3.125 60.333 3.125 40C3.125 19.667 19.667 3.125 40 3.125C60.333 3.125 76.875 19.667 76.875 40C76.875 47.5147 74.6344 54.7412 70.3953 60.8983C69.9059 61.6091 70.0855 62.5819 70.7961 63.0713C71.5069 63.5605 72.4795 63.3809 72.9691 62.6705C77.5687 55.9897 80 48.1505 80 40C80 17.878 62.1278 0 40 0Z" fill="black"/>
</svg>
