<svg width="23" height="23" viewBox="0 0 23 23" fill="none" xmlns="http://www.w3.org/2000/svg">
<path d="M11.4997 23.0004C17.8492 23.0004 22.9994 17.8502 22.9994 11.5007C22.9994 5.1512 17.8492 0.000976562 11.4997 0.000976562C5.15022 0.000976562 0 5.1512 0 11.5007C0 17.8502 5.15022 23.0004 11.4997 23.0004ZM10.6783 4.92944C10.6783 4.47765 11.0479 4.10801 11.4997 4.10801C11.9515 4.10801 12.3212 4.47765 12.3212 4.92944V11.1064L16.1202 14.1456C16.4734 14.429 16.5309 14.9465 16.2475 15.2997C16.0873 15.501 15.8491 15.6077 15.6068 15.6077C15.426 15.6077 15.2453 15.5502 15.0934 15.427L10.9864 12.1414C10.7933 11.9853 10.6784 11.7513 10.6784 11.5007V4.92944H10.6783Z" fill="white"/>
</svg>
