<svg width="23" height="23" viewBox="0 0 23 23" fill="none" xmlns="http://www.w3.org/2000/svg">
<path d="M11.4997 22.9994C17.8492 22.9994 22.9994 17.8492 22.9994 11.4997C22.9994 5.15022 17.8492 0 11.4997 0C5.15022 0 0 5.15022 0 11.4997C0 17.8492 5.15022 22.9994 11.4997 22.9994ZM10.6783 4.92846C10.6783 4.47667 11.0479 4.10703 11.4997 4.10703C11.9515 4.10703 12.3212 4.47667 12.3212 4.92846V11.1055L16.1202 14.1447C16.4734 14.4281 16.5309 14.9455 16.2475 15.2987C16.0873 15.5 15.8491 15.6068 15.6068 15.6068C15.426 15.6068 15.2453 15.5492 15.0934 15.426L10.9864 12.1404C10.7933 11.9843 10.6784 11.7503 10.6784 11.4997V4.92846H10.6783Z" fill="#7E6368"/>
</svg>
