<svg width="94" height="70" viewBox="0 0 94 70" fill="none" xmlns="http://www.w3.org/2000/svg">
<path d="M93.3776 56.9129C93.1238 56.6595 89.4645 53.0573 83.8589 50.1282C90.1969 41.6561 93.5495 32.5069 93.6963 32.1016C93.8341 31.7211 93.7969 31.299 93.5944 30.9484C93.392 30.5976 93.0451 30.3545 92.6464 30.2835C92.3346 30.2281 85.3302 29.0057 76.7379 29.4104C76.9198 27.3507 77.0149 25.1961 77.0215 22.948C77.0433 15.4801 76.0575 9.85883 76.0156 9.62317C75.9446 9.22467 75.7012 8.87777 75.3507 8.67541C75.0001 8.47305 74.5784 8.43572 74.1974 8.57349C73.8494 8.69956 65.9934 11.5749 57.8825 17.0355C57.0021 15.2305 56.0917 13.5575 55.2215 12.0656C54.8396 11.4109 53.9991 11.1899 53.3448 11.5716C52.6902 11.9534 52.469 12.7936 52.8508 13.4483C56.2737 19.3165 60.354 28.0698 60.354 36.4438C60.354 41.7443 58.533 46.4443 54.943 50.4191C54.2221 50.8099 53.536 51.21 52.8876 51.6104C53.5318 50.2687 54.1177 48.7733 54.5509 47.1471C54.746 46.4149 54.3107 45.6629 53.5783 45.4678C52.8466 45.2728 52.0941 45.7081 51.899 46.4405C51.0698 49.5524 49.5874 52.1701 48.3131 54.0098V43.0973C48.3131 42.3395 47.6987 41.7251 46.9408 41.7251C46.183 41.7251 45.5686 42.3395 45.5686 43.0973V54.01C44.2942 52.1702 42.8118 49.5522 41.9826 46.4405C41.7876 45.7082 41.036 45.2732 40.3034 45.4678C39.5711 45.6629 39.1357 46.4149 39.3307 47.1471C39.764 48.7733 40.3498 50.2683 40.9939 51.61C40.3455 51.2095 39.6591 50.8095 38.9381 50.4185C35.3485 46.4438 33.5276 41.7439 33.5276 36.4438C33.5276 23.223 43.6178 8.97748 46.9428 4.64284C47.581 5.47149 48.4658 6.66022 49.4749 8.12761C49.9043 8.75207 50.7584 8.91033 51.3832 8.48091C52.0077 8.05149 52.1658 7.19722 51.7365 6.57258C49.6171 3.49015 48.0562 1.62957 47.9907 1.552C47.73 1.24224 47.3459 1.06348 46.941 1.06348C46.5363 1.06348 46.1521 1.24224 45.8913 1.55181C45.7371 1.73478 42.0728 6.11004 38.3579 12.5881C37.4959 14.091 36.7088 15.5718 35.9931 17.0302C27.8844 11.5729 20.0331 8.69974 19.6851 8.57386C19.3044 8.43609 18.8825 8.47341 18.5319 8.67577C18.1813 8.87813 17.938 9.22485 17.867 9.62354C17.7863 10.0762 16.2159 19.1081 17.147 29.4104C8.55276 29.0047 1.54718 30.2279 1.2354 30.2833C0.836902 30.3543 0.489999 30.5975 0.287456 30.9482C0.0850956 31.2988 0.0477705 31.7209 0.185544 32.1014C0.332282 32.5067 3.68495 41.6557 10.0227 50.1278C4.41718 53.0571 0.757861 56.6589 0.504087 56.9125C0.246288 57.17 0.101562 57.5192 0.101562 57.8835C0.101562 58.2478 0.246471 58.5971 0.504087 58.8545C0.93607 59.286 11.2332 69.4212 24.2073 69.4212C35.0649 69.4212 44.0459 62.3243 46.941 59.7555C49.528 62.0484 56.9829 67.9606 66.303 69.1958C67.0546 69.2953 67.744 68.7669 67.8436 68.0156C67.9431 67.2644 67.4149 66.5746 66.6634 66.4751C58.4142 65.3817 51.5375 60.0905 48.9794 57.883C51.8379 55.4128 60.0908 49.0906 69.6741 49.0906C79.235 49.0906 87.5038 55.4148 90.3674 57.8843C87.8072 60.0934 80.9315 65.3822 72.6847 66.4752C71.9334 66.5748 71.405 67.2646 71.5045 68.0158C71.596 68.706 72.1855 69.208 72.8632 69.208C72.9233 69.208 72.984 69.2042 73.0453 69.1959C84.419 67.6885 93.0169 59.215 93.3774 58.8549C93.6352 58.5975 93.7799 58.2482 93.7799 57.8839C93.7799 57.5196 93.6352 57.1701 93.3776 56.9129ZM3.38946 32.7387C6.00367 32.3955 11.3896 31.8513 17.4557 32.1744C17.6138 33.3522 17.8081 34.5376 18.0441 35.7207C18.1744 36.3733 18.7474 36.8247 19.3884 36.8247C19.4773 36.8247 19.5677 36.8159 19.6584 36.798C20.4016 36.6496 20.8839 35.9269 20.7355 35.1837C18.8316 25.6427 19.8099 15.6497 20.322 11.7754C23.0539 12.9032 28.9491 15.5493 34.8184 19.5509C32.1385 25.6349 30.7831 31.2949 30.7831 36.444C30.7831 40.6988 31.8185 44.6099 33.8665 48.1274C31.096 47.1257 28.0364 46.4297 24.8012 46.353C24.7348 46.2421 24.668 46.1313 24.6051 46.0215C23.7589 44.5578 23.0074 42.9206 22.3716 41.1551C22.1149 40.4421 21.3285 40.0722 20.6157 40.3291C19.9027 40.5858 19.5327 41.372 19.7896 42.085C20.3509 43.644 20.9994 45.1138 21.7186 46.4692C18.4011 46.7936 15.3015 47.7308 12.5513 48.9202C7.78192 42.6657 4.64717 35.7675 3.38946 32.7387ZM24.2073 66.6765C14.6477 66.6765 6.37949 60.3538 3.51442 57.8833C6.37949 55.4129 14.6477 49.0902 24.2073 49.0902C33.7676 49.0902 42.0361 55.4137 44.9002 57.8833C42.0351 60.3538 33.7669 66.6765 24.2073 66.6765ZM69.2757 46.0251C69.2136 46.1331 69.1472 46.2432 69.0812 46.3532C65.8456 46.4299 62.7857 47.1259 60.015 48.1276C62.0631 44.6101 63.0985 40.6988 63.0985 36.444C63.0985 30.6169 61.2972 24.6886 59.0513 19.56C64.9159 15.5599 70.8232 12.907 73.5596 11.7761C74.2719 17.1954 75.8858 34.5753 69.2757 46.0251ZM72.1645 46.4694C74.2695 42.5073 75.6965 37.7236 76.4331 32.1739C82.4872 31.8521 87.8761 32.3962 90.492 32.7391C89.2339 35.7686 86.0992 42.6663 81.3304 48.9202C78.5806 47.7309 75.4813 46.7938 72.1645 46.4694Z" fill="black"/>
<path d="M30.3762 8.08071C31.0432 8.46585 31.7837 8.66272 32.5339 8.66272C32.9099 8.66272 33.2884 8.61314 33.6615 8.51342C34.7785 8.21409 35.7122 7.4976 36.2903 6.49622C36.8685 5.49485 37.0222 4.32789 36.7229 3.21089C36.4235 2.09388 35.7072 1.16021 34.7057 0.582035C33.7039 0.00367995 32.5372 -0.150011 31.4203 0.149504C29.1144 0.76738 27.7411 3.14612 28.359 5.45185C28.6583 6.56886 29.3748 7.50254 30.3762 8.08071ZM32.1308 2.8005C32.2675 2.7639 32.4058 2.74579 32.5436 2.74579C32.8182 2.74579 33.0894 2.81788 33.3336 2.95876C33.7003 3.17045 33.9625 3.51223 34.0721 3.92116C34.2982 4.76537 33.7956 5.6361 32.9514 5.86225C32.5423 5.97203 32.1152 5.91567 31.7486 5.70398C31.3819 5.49229 31.1197 5.15051 31.0101 4.74158C30.7838 3.89738 31.2866 3.02664 32.1308 2.8005Z" fill="#957D7E"/>
<path d="M7.60296 23.0592C8.7593 23.0592 9.84667 22.6089 10.6643 21.7911C12.3524 20.103 12.3524 17.3565 10.6643 15.6683C8.97612 13.9803 6.22962 13.9804 4.54157 15.6683C3.7239 16.486 3.27344 17.5733 3.27344 18.7297C3.27344 19.8862 3.72372 20.9734 4.54139 21.7911C5.35925 22.6088 6.44643 23.0592 7.60296 23.0592ZM6.48229 17.609C6.79132 17.3002 7.19714 17.1456 7.60296 17.1456C8.00878 17.1456 8.41478 17.3 8.72363 17.609C9.34168 18.2269 9.34168 19.2327 8.72363 19.8505C8.42429 20.1499 8.02616 20.3147 7.60296 20.3147C7.17976 20.3147 6.78163 20.1499 6.48229 19.8504C6.18296 19.551 6.01811 19.1531 6.01811 18.7297C6.01811 18.3063 6.18278 17.9084 6.48229 17.609Z" fill="#957D7E"/>
<path d="M60.2188 8.51332C60.5918 8.61322 60.9702 8.66262 61.3462 8.66262C62.0964 8.66262 62.8368 8.46575 63.5039 8.08061C64.5055 7.50243 65.2218 6.56876 65.5211 5.45175C66.139 3.14583 64.7656 0.767095 62.4597 0.149219C61.3427 -0.149747 60.1761 0.00357818 59.1744 0.58175C58.1728 1.15992 57.4565 2.0936 57.1572 3.2106C56.8579 4.32761 57.0116 5.49438 57.5897 6.49594C58.1679 7.49749 59.1018 8.21381 60.2188 8.51332ZM59.8084 3.92106C59.918 3.51213 60.1802 3.17035 60.5468 2.95866C60.7911 2.81759 61.0621 2.74569 61.3369 2.74569C61.4745 2.74569 61.613 2.7638 61.7495 2.80039C62.5937 3.02654 63.0964 3.89746 62.8701 4.74166C62.7605 5.15059 62.4983 5.49237 62.1317 5.70406C61.765 5.91557 61.338 5.97211 60.929 5.86233C60.0848 5.636 59.5822 4.76526 59.8084 3.92106Z" fill="#957D7E"/>
<path d="M86.2805 23.059C87.437 23.059 88.5242 22.6088 89.3419 21.7911C90.1595 20.9734 90.61 19.886 90.61 18.7297C90.61 17.5733 90.1597 16.486 89.3419 15.6683C87.654 13.9804 84.9073 13.9803 83.2191 15.6683C81.531 17.3565 81.5312 20.103 83.2191 21.7911C84.0368 22.6086 85.1241 23.059 86.2805 23.059ZM85.1598 17.6088C85.7779 16.9908 86.7834 16.991 87.4013 17.6088C87.7007 17.9082 87.8655 18.3063 87.8655 18.7295C87.8655 19.1527 87.7007 19.5508 87.4011 19.8502C87.1018 20.1495 86.7039 20.3144 86.2805 20.3144C85.8571 20.3144 85.4591 20.1495 85.1598 19.8502C84.5418 19.2323 84.5418 18.2267 85.1598 17.6088Z" fill="#957D7E"/>
</svg>
