<svg width="89" height="81" viewBox="0 0 89 81" fill="none" xmlns="http://www.w3.org/2000/svg">
<path d="M44.3981 22.3753C47.2473 22.3753 49.9778 20.9394 52.0865 18.3333C54.0123 15.9533 55.1166 12.9515 55.1166 10.0947C55.1166 4.33977 50.5092 0 44.3981 0C38.287 0 33.6797 4.33411 33.6797 10.0947C33.6797 12.9515 34.7839 15.9533 36.7098 18.3333C38.8184 20.9413 41.5489 22.3753 44.3981 22.3753ZM44.3981 3.10926C48.8076 3.10926 52.0073 6.04703 52.0073 10.0947C52.0073 15.1826 47.8447 19.2661 44.3981 19.2661C40.1827 19.2661 36.7889 14.2479 36.7889 10.0947C36.7889 6.05457 39.9886 3.10926 44.3981 3.10926Z" fill="black"/>
<path d="M31.716 37.2963L30.6249 52.8596C30.6106 53.0632 30.6365 53.2677 30.7012 53.4614C30.7658 53.655 30.868 53.8341 31.0019 53.9882C31.1357 54.1424 31.2987 54.2687 31.4813 54.3599C31.664 54.4511 31.8628 54.5054 32.0665 54.5197H32.1758C32.5691 54.5193 32.9476 54.37 33.2353 54.1019C33.523 53.8338 33.6986 53.4667 33.7267 53.0744L34.8177 37.5244C34.8321 37.3207 34.8062 37.1162 34.7415 36.9225C34.6768 36.7289 34.5746 36.5499 34.4408 36.3957C34.3069 36.2416 34.144 36.1153 33.9613 36.0241C33.7787 35.9329 33.5798 35.8786 33.3762 35.8642C33.1725 35.8498 32.968 35.8757 32.7744 35.9404C32.5807 36.0051 32.4017 36.1073 32.2475 36.2411C32.0934 36.375 31.9671 36.5379 31.8759 36.7206C31.7847 36.9033 31.7304 37.1021 31.716 37.3058V37.2963Z" fill="black"/>
<path d="M65.4821 54.5177C65.9039 54.4804 66.2936 54.2773 66.566 53.953C66.8383 53.6288 66.971 53.2098 66.9349 52.7879C66.9349 52.7879 65.2917 41.0047 65.0505 37.0513C64.6039 29.9527 60.2679 24.2581 53.4935 23.2217C51.1116 22.8561 46.7851 22.581 44.5238 22.5791C41.437 22.6326 38.355 22.8458 35.2902 23.2179C32.1129 23.6529 29.2028 25.2305 27.1044 27.6557C24.8997 30.2015 23.9141 33.4558 23.7125 37.0588C23.4864 41.016 21.9883 52.8048 21.9883 52.8048C21.963 53.0092 21.9787 53.2166 22.0342 53.4148C22.0898 53.6131 22.1842 53.7984 22.312 53.9599C22.4397 54.1214 22.5983 54.2559 22.7785 54.3556C22.9587 54.4553 23.1569 54.5182 23.3616 54.5407C23.5663 54.5632 23.7734 54.5447 23.9709 54.4865C24.1684 54.4283 24.3524 54.3313 24.5122 54.2014C24.6719 54.0715 24.8043 53.9111 24.9015 53.7296C24.9988 53.548 25.059 53.349 25.0787 53.144C25.0787 53.144 26.5994 41.2271 26.8161 37.2303C27.1251 31.5658 30.4775 27.0131 35.7142 26.3008C38.637 25.9458 41.5762 25.742 44.52 25.6902C46.6268 25.6902 50.8083 25.9578 53.0205 26.297C55.4529 26.6652 57.6768 27.8813 59.2993 29.7304C61.0254 31.7128 61.7736 34.3754 61.9375 37.2397C62.1768 41.2422 63.8464 53.161 63.8464 53.161C63.9068 53.5476 64.1064 53.8989 64.4076 54.1487C64.7088 54.3986 65.0909 54.5298 65.4821 54.5177Z" fill="black"/>
<path d="M55.3777 35.855C55.173 35.8691 54.9731 35.9235 54.7896 36.0152C54.606 36.1069 54.4425 36.234 54.3083 36.3892C54.1741 36.5444 54.072 36.7246 54.0078 36.9195C53.9436 37.1143 53.9186 37.32 53.9342 37.5246L55.0272 53.0859C55.0543 53.4784 55.2293 53.8459 55.5167 54.1145C55.8042 54.383 56.1828 54.5326 56.5761 54.5331H56.6873C57.0985 54.5037 57.4811 54.3123 57.7514 54.0011C58.0216 53.6899 58.1574 53.2842 58.1289 52.873L57.0359 37.3097C57.0228 37.1053 56.9694 36.9054 56.8789 36.7216C56.7884 36.5378 56.6625 36.3736 56.5085 36.2385C56.3545 36.1033 56.1753 35.9999 55.9813 35.9341C55.7872 35.8683 55.5821 35.8414 55.3777 35.855Z" fill="black"/>
<path d="M54.3148 68.5939L61.7921 61.3051C61.9997 61.1026 62.1465 60.8461 62.216 60.5646C62.2855 60.283 62.2748 59.9877 62.1852 59.7119C62.0956 59.4361 61.9307 59.1908 61.709 59.0038C61.4874 58.8168 61.2178 58.6956 60.9309 58.6537L50.5988 57.1462L45.9782 47.7902C45.8499 47.5299 45.6513 47.3107 45.4049 47.1574C45.1584 47.0041 44.874 46.9229 44.5838 46.9229C44.2935 46.9229 44.0091 47.0041 43.7627 47.1574C43.5162 47.3107 43.3176 47.5299 43.1893 47.7902L38.5688 57.1519L28.2366 58.6594C27.9497 58.7012 27.6801 58.8225 27.4585 59.0095C27.2368 59.1964 27.0719 59.4417 26.9823 59.7175C26.8927 59.9933 26.8821 60.2887 26.9515 60.5702C27.021 60.8518 27.1678 61.1083 27.3755 61.3107L34.8527 68.5996L33.0889 78.8827C33.039 79.1695 33.0706 79.4644 33.18 79.7341C33.2895 80.0037 33.4724 80.2373 33.708 80.4081C33.9436 80.5789 34.2225 80.6802 34.5128 80.7003C34.8031 80.7205 35.0932 80.6588 35.3502 80.5222L44.5838 75.6642L53.8173 80.5222C54.0406 80.6391 54.2888 80.7005 54.5409 80.7012C54.7673 80.7009 54.9909 80.6511 55.1961 80.5555C55.4012 80.4599 55.5831 80.3207 55.729 80.1476C55.8748 79.9744 55.9812 79.7716 56.0406 79.5531C56.1 79.3347 56.111 79.1059 56.0729 78.8827L54.3148 68.5939ZM43.8601 72.5323C42.0549 73.4519 36.6844 76.3011 36.6844 76.3011L38.0543 68.3094C38.0969 68.0611 38.0785 67.8061 38.0007 67.5665C37.9229 67.3269 37.7881 67.1097 37.6077 66.9338L31.8019 61.2806L39.8257 60.1142C40.0749 60.0778 40.3116 59.9814 40.5155 59.8334C40.7193 59.6854 40.8841 59.4901 40.9959 59.2643L44.5762 51.9924L48.1566 59.2643C48.2683 59.4901 48.4331 59.6854 48.637 59.8334C48.8408 59.9814 49.0775 60.0778 49.3268 60.1142L57.3505 61.2806L51.5447 66.9338C51.3644 67.1097 51.2295 67.3269 51.1517 67.5665C51.0739 67.8061 51.0555 68.0611 51.0981 68.3094L52.4681 76.3011C52.4681 76.3011 47.0975 73.4481 45.2923 72.5323C45.0723 72.4136 44.8262 72.3514 44.5762 72.3514C44.3262 72.3514 44.0801 72.4136 43.8601 72.5323Z" fill="#957D7E"/>
<path d="M87.2964 63.3799L79.7419 62.2813L76.3632 55.4371C76.2352 55.1767 76.0368 54.9574 75.7905 54.804C75.5442 54.6506 75.2598 54.5693 74.9697 54.5693C74.6795 54.5693 74.3951 54.6506 74.1488 54.804C73.9025 54.9574 73.7041 55.1767 73.5761 55.4371L70.1974 62.2813L62.6429 63.3799C62.3559 63.4217 62.0864 63.543 61.8647 63.73C61.6431 63.9169 61.4781 64.1622 61.3885 64.438C61.299 64.7138 61.2883 65.0092 61.3578 65.2907C61.4273 65.5723 61.5741 65.8288 61.7817 66.0312L67.2465 71.3603L65.9556 78.8828C65.9057 79.1695 65.9373 79.4645 66.0467 79.7341C66.1562 80.0038 66.3391 80.2373 66.5747 80.4081C66.8103 80.579 67.0891 80.6802 67.3795 80.7004C67.6698 80.7206 67.9599 80.6588 68.2169 80.5222L74.9725 76.9701L81.7299 80.5222C81.9533 80.6391 82.2015 80.7006 82.4535 80.7013C82.6799 80.7009 82.9035 80.6512 83.1087 80.5556C83.3139 80.46 83.4958 80.3207 83.6416 80.1476C83.7875 79.9745 83.8938 79.7716 83.9532 79.5532C84.0126 79.3347 84.0236 79.106 83.9856 78.8828L82.6947 71.3603L88.1595 66.0312C88.3671 65.8288 88.5139 65.5723 88.5834 65.2907C88.6529 65.0092 88.6422 64.7138 88.5527 64.438C88.4631 64.1622 88.2981 63.9169 88.0765 63.73C87.8548 63.543 87.5853 63.4217 87.2983 63.3799H87.2964ZM74.247 73.8383C73.0617 74.4338 69.553 76.305 69.553 76.305L70.4499 71.0795C70.4925 70.8312 70.4741 70.5763 70.3963 70.3366C70.3185 70.097 70.1837 69.8799 70.0033 69.7039L66.2063 66.003L71.4524 65.2492C71.702 65.2131 71.9391 65.1166 72.143 64.9682C72.3469 64.8198 72.5115 64.6239 72.6226 64.3974L74.9687 59.645L77.3148 64.3974C77.4266 64.6237 77.5917 64.8195 77.7958 64.9678C78 65.1162 78.2371 65.2128 78.4869 65.2492L83.7312 66.003L79.936 69.7039C79.7554 69.8797 79.6203 70.0968 79.5425 70.3365C79.4647 70.5762 79.4465 70.8312 79.4894 71.0795L80.3939 76.305C80.3939 76.305 76.887 74.4338 75.7017 73.8383C75.4782 73.7179 75.2283 73.6549 74.9744 73.6549C74.7205 73.6549 74.4705 73.7179 74.247 73.8383Z" fill="#957D7E"/>
<path d="M26.5347 63.3799L18.9802 62.2813L15.6014 55.4371C15.4735 55.1767 15.2751 54.9574 15.0288 54.804C14.7825 54.6506 14.4981 54.5693 14.2079 54.5693C13.9178 54.5693 13.6334 54.6506 13.3871 54.804C13.1408 54.9574 12.9424 55.1767 12.8144 55.4371L9.4357 62.2813L1.88115 63.3799C1.5942 63.4217 1.32466 63.543 1.103 63.73C0.881344 63.9169 0.716404 64.1622 0.62682 64.438C0.537237 64.7138 0.526582 65.0092 0.596059 65.2907C0.665537 65.5723 0.812376 65.8288 1.01998 66.0312L6.48474 71.3603L5.20335 78.8828C5.15342 79.1695 5.18498 79.4645 5.29442 79.7341C5.40386 80.0038 5.5868 80.2373 5.82241 80.4081C6.05803 80.579 6.33686 80.6802 6.62718 80.7004C6.9175 80.7206 7.20765 80.6588 7.46462 80.5222L14.2221 76.9701L20.9776 80.5222C21.201 80.6391 21.4492 80.7006 21.7012 80.7013C21.9276 80.7009 22.1512 80.6512 22.3564 80.5556C22.5616 80.46 22.7435 80.3207 22.8893 80.1476C23.0352 79.9745 23.1415 79.7716 23.2009 79.5532C23.2603 79.3347 23.2714 79.106 23.2333 78.8828L21.9424 71.3603L27.4072 66.0312C27.6148 65.8288 27.7616 65.5723 27.8311 65.2907C27.9006 65.0092 27.8899 64.7138 27.8004 64.438C27.7108 64.1622 27.5458 63.9169 27.3242 63.73C27.1025 63.543 26.833 63.4217 26.546 63.3799H26.5347ZM13.4947 73.8383L8.79312 76.305L9.68821 71.0795C9.73114 70.8312 9.7129 70.5762 9.63508 70.3365C9.55727 70.0968 9.42221 69.8797 9.24161 69.7039L5.44643 66.003L10.6907 65.2492C10.9404 65.2128 11.1776 65.1162 11.3818 64.9678C11.5859 64.8195 11.751 64.6237 11.8628 64.3974L14.2089 59.645L16.555 64.3974C16.666 64.6239 16.8307 64.8198 17.0346 64.9682C17.2385 65.1166 17.4756 65.2131 17.7252 65.2492L22.9713 66.003L19.1743 69.7039C18.9939 69.8799 18.8591 70.097 18.7813 70.3366C18.7035 70.5763 18.6851 70.8312 18.7277 71.0795L19.6246 76.305L14.9306 73.8383C14.7145 73.706 14.466 73.6361 14.2126 73.6361C13.9593 73.6361 13.7108 73.706 13.4947 73.8383Z" fill="#957D7E"/>
</svg>
