<svg width="31" height="20" viewBox="0 0 31 20" fill="none" xmlns="http://www.w3.org/2000/svg">
<path d="M15.5068 4.98926C12.8479 4.98926 10.6875 7.14962 10.6875 9.80852C10.6875 12.4674 12.8479 14.6278 15.5068 14.6278C18.1657 14.6278 20.326 12.4674 20.326 9.80852C20.326 7.14962 18.1657 4.98926 15.5068 4.98926ZM14.2436 6.36139C13.6453 6.36139 12.2535 7.08986 12.2535 7.68811L12.449 9.47616C12.4823 7.98053 13.6788 6.78402 15.1412 6.78402L14.2436 6.36139Z" fill="white"/>
<path d="M30.1321 8.81136C28.5035 6.78395 22.6872 0.169922 15.5081 0.169922C8.32907 0.169922 2.51272 6.78395 0.884138 8.81136C0.418829 9.37638 0.418829 10.2073 0.884138 10.8055C2.51272 12.833 8.32907 19.447 15.5081 19.447C22.6872 19.447 28.5035 12.833 30.1321 10.8055C30.5974 10.2405 30.5974 9.40962 30.1321 8.81136ZM15.5081 16.7881C11.6527 16.7881 8.52849 13.6639 8.52849 9.80845C8.52849 5.95304 11.6527 2.82883 15.5081 2.82883C19.3635 2.82883 22.4877 5.95304 22.4877 9.80845C22.4877 13.6639 19.3635 16.7881 15.5081 16.7881Z" fill="white"/>
</svg>
