<svg width="30" height="20" viewBox="0 0 30 20" fill="none" xmlns="http://www.w3.org/2000/svg">
<path d="M14.9755 4.98828C12.3166 4.98828 10.1562 7.14864 10.1562 9.80755C10.1562 12.4665 12.3166 14.6268 14.9755 14.6268C17.6344 14.6268 19.7948 12.4665 19.7948 9.80755C19.7948 7.14864 17.6344 4.98828 14.9755 4.98828ZM13.7123 6.36041C13.1141 6.36041 11.7222 7.08888 11.7222 7.68714L11.9178 9.47518C11.951 7.97955 13.1475 6.78304 14.6099 6.78304L13.7123 6.36041Z" fill="#7E6368"/>
<path d="M29.5969 8.81039C27.9684 6.78297 22.152 0.168945 14.973 0.168945C7.79392 0.168945 1.97756 6.78297 0.348981 8.81039C-0.116327 9.3754 -0.116327 10.2063 0.348981 10.8046C1.97756 12.832 7.79392 19.446 14.973 19.446C22.152 19.446 27.9684 12.832 29.5969 10.8046C30.0622 10.2395 30.0622 9.40864 29.5969 8.81039ZM14.973 16.7871C11.1175 16.7871 7.99333 13.6629 7.99333 9.80748C7.99333 5.95207 11.1175 2.82785 14.973 2.82785C18.8284 2.82785 21.9526 5.95207 21.9526 9.80748C21.9526 13.6629 18.8284 16.7871 14.973 16.7871Z" fill="#7E6368"/>
</svg>
