<svg width="82" height="82" viewBox="0 0 82 82" fill="none" xmlns="http://www.w3.org/2000/svg">
<g clip-path="url(#clip0_141_371)">
<path d="M44.512 52.6759L43.7463 52.3846L43.167 52.9639L36.82 59.311C36.8199 59.311 36.8198 59.3111 36.8198 59.3111C36.6826 59.4482 36.4971 59.5249 36.304 59.5249H32.011H30.7454V60.7905V65.0835C30.7454 65.4863 30.4187 65.813 30.0159 65.813H28.0604H26.7947V67.0786V69.034C26.7947 69.4369 26.4682 69.7635 26.0653 69.7635H21.1868H19.9211V71.0291V75.9138C19.9211 76.1075 19.8441 76.2932 19.7071 76.43L19.707 76.4301L15.7291 80.402C15.729 80.4021 15.729 80.4021 15.729 80.4021C15.5922 80.5386 15.407 80.6152 15.2136 80.6152H3.40916C3.00626 80.6152 2.67969 80.2887 2.67969 79.8858V65.5614C2.67969 65.3683 2.75644 65.1827 2.89359 65.0455L29.0704 38.8668L29.6494 38.2877L29.3584 37.5222C28.2363 34.5704 27.6674 31.4617 27.6674 28.2578C27.6674 13.8612 39.3821 2.14648 53.7787 2.14648C68.1753 2.14648 79.8898 13.8612 79.8896 28.2574C79.8896 42.654 68.1749 54.3687 53.7783 54.3687C50.5733 54.3687 47.4642 53.7991 44.512 52.6759Z" stroke="black" stroke-width="2.53125"/>
<path d="M62.1098 12.4521C57.989 12.4521 54.6367 15.8045 54.6367 19.9252C54.6367 24.0459 57.989 27.3982 62.1098 27.3982C66.2305 27.3982 69.5828 24.0459 69.5828 19.9252C69.5828 15.8045 66.2306 12.4521 62.1098 12.4521ZM62.1098 23.408C60.1893 23.408 58.6269 21.8456 58.6269 19.9252C58.6269 18.0048 60.1893 16.4423 62.1098 16.4423C64.0302 16.4423 65.5926 18.0048 65.5926 19.9252C65.5926 21.8456 64.0302 23.408 62.1098 23.408Z" fill="#957D7E"/>
<path d="M10.5469 68.501L36.5826 43.1885" stroke="#957D7E" stroke-width="2.53125" stroke-linecap="round"/>
</g>
<defs>
<clipPath id="clip0_141_371">
<rect width="81" height="81" fill="white" transform="translate(0.785156 0.880859)"/>
</clipPath>
</defs>
</svg>
