<svg width="80" height="80" viewBox="0 0 80 80" fill="none" xmlns="http://www.w3.org/2000/svg">
<path d="M20.3902 31.3992H44.9944C46.1998 31.3992 47.1805 30.4186 47.1805 29.2131V4.60895C47.1805 3.40347 46.1998 2.42268 44.9944 2.42268H20.3902C19.1847 2.42268 18.2041 3.40347 18.2041 4.60895V5.12005H14.0058V4.16598C14.0058 1.86877 12.137 0 9.83978 0C7.54257 0 5.67381 1.86877 5.67381 4.16598V47.2398C5.67381 47.887 6.1985 48.4117 6.84569 48.4117C7.49289 48.4117 8.01758 47.887 8.01758 47.2398V4.16598C8.01758 3.16113 8.83493 2.34377 9.83978 2.34377C10.8446 2.34377 11.662 3.16113 11.662 4.16598V6.29194V11.9392V21.8827V27.53V71.0043H8.01758V52.586C8.01758 51.9388 7.49289 51.4141 6.84569 51.4141C6.1985 51.4141 5.67381 51.9388 5.67381 52.586V71.0043H4.49379C2.0158 71.0043 0 73.0182 0 75.4937V78.138C0 79.1578 0.829696 79.9875 1.84955 79.9875H17.83C18.8522 79.9875 19.6839 79.1578 19.6839 78.138V75.4937C19.6839 73.0182 17.6681 71.0043 15.1902 71.0043H14.0056V28.7018H18.2038V29.2129C18.2039 30.4186 19.1847 31.3992 20.3902 31.3992ZM17.3403 75.4937V77.6437H2.34377V75.4937C2.34377 74.3106 3.30831 73.3481 4.49379 73.3481H6.84569H12.8339H15.1903C16.3758 73.3481 17.3403 74.3106 17.3403 75.4937ZM14.0058 13.1112H18.2039V20.711H14.0058V13.1112ZM20.5477 4.76645H44.8367V29.0554H20.5477V27.53V21.8827V11.9393V6.29209V4.76645ZM18.2039 7.46398V10.7675H14.0058V7.46398H18.2039ZM14.0058 26.3581V23.0546H18.2039V26.3581H14.0058Z" fill="#7E6368"/>
<path d="M79.996 49.3794C79.996 46.7355 77.8569 44.5844 75.2275 44.5844H70.7473L69.2131 41.3478C68.2868 39.394 67.5868 38.061 66.3432 37.3635C65.1951 36.7196 63.8848 36.724 61.5005 36.731L41.8439 36.7315L41.6866 36.731C39.3059 36.7234 37.995 36.7196 36.8473 37.3637C35.6043 38.0612 34.9043 39.394 33.9782 41.3478L32.444 44.5844H27.9638C25.3344 44.5844 23.1953 46.7353 23.1953 49.3794C23.1953 52.0015 25.2994 54.1376 27.8988 54.1728L26.5421 57.035C25.786 58.6258 25.7335 58.8453 25.7408 60.3917C25.7414 60.5275 25.7421 71.0515 25.7421 71.0515C25.7421 71.9372 25.7433 73.3009 27.0044 73.8039V77.0708C27.0044 78.6866 28.319 80.001 29.9346 80.001H35.3692C36.9825 80.001 38.295 78.6864 38.295 77.0708V73.9994H48.9624C49.6098 73.9994 50.1343 73.4747 50.1343 72.8275C50.1343 72.1803 49.6098 71.6556 48.9624 71.6556H28.1763C28.1477 71.6556 28.1215 71.6553 28.0974 71.6547C28.0858 71.4587 28.085 60.5199 28.0844 60.3808C28.0793 59.2606 28.0793 59.2606 28.6594 58.04L30.4918 54.1745H72.6994L74.5324 58.0412C75.1085 59.2531 75.1085 59.2531 75.1025 60.3605C75.1018 60.505 75.101 71.4587 75.0897 71.655C75.0669 71.6556 54.2952 71.6559 54.2952 71.6559C53.6478 71.6559 53.1233 72.1806 53.1233 72.8278C53.1233 73.475 53.6478 73.9997 54.2952 73.9997H64.8917V77.071C64.8917 78.6868 66.2061 80.0011 67.8218 80.0011H73.2564C74.8722 80.0011 76.1868 78.6866 76.1868 77.071V73.8031C77.4435 73.2995 77.4448 71.9367 77.4448 71.0517C77.4448 71.0517 77.4455 60.5135 77.4463 60.3725C77.4543 58.853 77.3946 58.6034 76.6496 57.0362L75.2922 54.1729C77.8918 54.1376 79.996 52.0015 79.996 49.3794ZM25.5391 49.3794C25.5391 48.0279 26.6268 46.9282 27.9638 46.9282H31.333L29.0093 51.8306H27.964C26.6268 51.8306 25.5391 50.731 25.5391 49.3794ZM35.9514 73.9994V77.0706C35.9514 77.3886 35.6848 77.6571 35.3693 77.6571H29.9348C29.6168 77.6571 29.3483 77.3885 29.3483 77.0706V73.9994H35.9514ZM36.0961 42.3517C36.9183 40.6173 37.412 39.7345 37.9942 39.4078C38.6042 39.0656 39.7605 39.0686 41.6794 39.075L61.3501 39.0754L61.5077 39.075C63.4281 39.0686 64.5862 39.0654 65.1968 39.4079C65.7795 39.7347 66.2732 40.6175 67.0951 42.3517L71.5884 51.8307H31.6029L36.0961 42.3517ZM73.8432 77.0708C73.8432 77.3888 73.5746 77.6572 73.2566 77.6572H67.822C67.5042 77.6572 67.2356 77.3886 67.2356 77.0708V73.9994H73.8432V77.0708ZM75.2275 51.8306H74.1822L71.8583 46.9282H75.2275C76.5646 46.9282 77.6523 48.0279 77.6523 49.3794C77.6523 50.731 76.5646 51.8306 75.2275 51.8306Z" fill="black"/>
<path d="M45.6563 62.4126H57.5398C58.1872 62.4126 58.7117 61.8879 58.7117 61.2407C58.7117 60.5935 58.1872 60.0688 57.5398 60.0688H45.6563C45.0089 60.0688 44.4844 60.5935 44.4844 61.2407C44.4844 61.8879 45.0089 62.4126 45.6563 62.4126Z" fill="black"/>
<path d="M45.6563 67.7095H57.5398C58.1872 67.7095 58.7117 67.1848 58.7117 66.5376C58.7117 65.8904 58.1872 65.3657 57.5398 65.3657H45.6563C45.0089 65.3657 44.4844 65.8904 44.4844 66.5376C44.4844 67.1848 45.0089 67.7095 45.6563 67.7095Z" fill="black"/>
<path d="M71.272 62.7866C71.272 60.0717 69.0654 57.8633 66.353 57.8633C63.6383 57.8633 61.4297 60.0719 61.4297 62.7866C61.4297 65.5013 63.6383 67.7101 66.353 67.7101C69.0654 67.7099 71.272 65.5013 71.272 62.7866ZM63.7735 62.7866C63.7735 61.3643 64.9307 60.2071 66.353 60.2071C67.773 60.2071 68.9282 61.3643 68.9282 62.7866C68.9282 64.2091 67.7729 65.3663 66.353 65.3663C64.9307 65.3662 63.7735 64.209 63.7735 62.7866Z" fill="black"/>
<path d="M31.9297 62.7866C31.9297 65.5015 34.1364 67.7101 36.8486 67.7101C39.5635 67.7101 41.772 65.5015 41.772 62.7866C41.772 60.0717 39.5634 57.8633 36.8486 57.8633C34.1364 57.8631 31.9297 60.0717 31.9297 62.7866ZM39.4284 62.7866C39.4284 64.2091 38.2712 65.3663 36.8488 65.3663C35.4288 65.3663 34.2736 64.2091 34.2736 62.7866C34.2736 61.3643 35.4289 60.2071 36.8488 60.2071C38.2712 60.2069 39.4284 61.3643 39.4284 62.7866Z" fill="black"/>
<path d="M33.0202 7.10303H28.2109C27.5733 7.10303 27.0391 7.6371 27.0391 8.27491V25.5471C27.0391 26.1943 27.5638 26.719 28.2109 26.719C28.8581 26.719 29.3828 26.1943 29.3828 25.5471V19.2102C30.5091 19.2039 32.1863 19.1953 33.0202 19.1953C36.4067 19.1953 39.1618 16.4831 39.1618 13.1492C39.1618 9.81524 36.4067 7.10303 33.0202 7.10303ZM33.0202 16.8516C32.1913 16.8516 30.538 16.86 29.4096 16.8662C29.4031 15.7094 29.3947 13.9947 29.3947 13.1492C29.3947 12.4376 29.3899 10.649 29.3863 9.4468H33.0201C35.0787 9.4468 36.8179 11.1423 36.8179 13.1492C36.8179 15.1561 35.0787 16.8516 33.0202 16.8516Z" fill="#7E6368"/>
</svg>
