<svg width="20" height="20" viewBox="0 0 20 20" fill="none" xmlns="http://www.w3.org/2000/svg">
<path d="M18.9691 14.3608L16.2651 11.6568C15.2994 10.6911 13.6577 11.0774 13.2714 12.3328C12.9817 13.202 12.016 13.6849 11.1468 13.4917C9.21539 13.0088 6.60795 10.498 6.12509 8.46994C5.83537 7.60076 6.4148 6.63504 7.28395 6.34536C8.53938 5.95908 8.92567 4.31736 7.95995 3.35164L5.25594 0.647627C4.48337 -0.0283756 3.32451 -0.0283756 2.6485 0.647627L0.813641 2.48249C-1.02122 4.41393 1.00678 9.53223 5.54566 14.0711C10.0845 18.61 15.2028 20.7346 17.1343 18.8031L18.9691 16.9683C19.6452 16.1957 19.6452 15.0368 18.9691 14.3608Z" fill="white"/>
</svg>
