<svg width="17" height="23" viewBox="0 0 17 23" fill="none" xmlns="http://www.w3.org/2000/svg">
<path d="M8.50161 0C3.90857 0 0.171875 3.7367 0.171875 8.32969C0.171875 14.0297 7.62617 22.3978 7.94355 22.7512C8.24165 23.0832 8.76212 23.0826 9.05968 22.7512C9.37705 22.3978 16.8314 14.0297 16.8314 8.32969C16.8313 3.7367 13.0946 0 8.50161 0ZM8.50161 12.5206C6.19074 12.5206 4.31076 10.6406 4.31076 8.32969C4.31076 6.01882 6.19078 4.13884 8.50161 4.13884C10.8124 4.13884 12.6924 6.01886 12.6924 8.32974C12.6924 10.6406 10.8124 12.5206 8.50161 12.5206Z" fill="#7E6368"/>
</svg>
