<svg width="28" height="25" viewBox="0 0 28 25" fill="none" xmlns="http://www.w3.org/2000/svg">
<path d="M0.478065 11.7615L6.71461 14.0891L9.12854 21.8523C9.283 22.3495 9.89099 22.5333 10.2945 22.2034L13.7709 19.3694C14.1353 19.0724 14.6543 19.0576 15.0352 19.3341L21.3053 23.8863C21.737 24.2001 22.3486 23.9635 22.4568 23.4419L27.05 1.34783C27.1682 0.777996 26.6083 0.302627 26.0657 0.512479L0.470758 10.3862C-0.160873 10.6298 -0.155369 11.5241 0.478065 11.7615ZM8.73951 12.8501L20.9281 5.34313C21.1471 5.20861 21.3725 5.5048 21.1844 5.67929L11.1253 15.0297C10.7717 15.3588 10.5436 15.7993 10.479 16.2773L10.1364 18.8167C10.091 19.1557 9.61473 19.1894 9.52118 18.8612L8.20333 14.2307C8.05239 13.7026 8.27235 13.1384 8.73951 12.8501Z" fill="white"/>
</svg>
