<svg width="28" height="24" viewBox="0 0 28 24" fill="none" xmlns="http://www.w3.org/2000/svg">
<path d="M0.478065 11.2996L6.71461 13.6272L9.12854 21.3904C9.283 21.8876 9.89099 22.0714 10.2945 21.7414L13.7709 18.9074C14.1353 18.6105 14.6543 18.5957 15.0352 18.8722L21.3053 23.4244C21.737 23.7382 22.3486 23.5016 22.4568 22.98L27.05 0.885912C27.1682 0.316082 26.6083 -0.159287 26.0657 0.050565L0.470758 9.92433C-0.160873 10.1679 -0.155369 11.0622 0.478065 11.2996ZM8.73951 12.3881L20.9281 4.88121C21.1471 4.7467 21.3725 5.04289 21.1844 5.21737L11.1253 14.5678C10.7717 14.8969 10.5436 15.3374 10.479 15.8154L10.1364 18.3548C10.091 18.6938 9.61473 18.7275 9.52118 18.3993L8.20333 13.7688C8.05239 13.2406 8.27235 12.6765 8.73951 12.3881Z" fill="#7E6368"/>
</svg>
