<svg width="30" height="18" viewBox="0 0 30 18" fill="none" xmlns="http://www.w3.org/2000/svg">
<path d="M24.266 10.5271C23.8013 9.94027 23.9342 9.67918 24.266 9.15459C24.272 9.1486 28.1082 3.84764 28.5034 2.04991L28.5058 2.04871C28.7022 1.39358 28.5058 0.912109 27.556 0.912109H24.4133C23.6133 0.912109 23.2444 1.32531 23.0467 1.78762C23.0467 1.78762 21.4466 5.61782 19.183 8.10063C18.4524 8.81804 18.1147 9.048 17.7158 9.048C17.5194 9.048 17.214 8.81804 17.214 8.16291V2.04871C17.214 1.26303 16.99 0.912109 16.3277 0.912109H11.3861C10.8842 0.912109 10.586 1.2786 10.586 1.61994C10.586 2.3649 11.7178 2.53617 11.8352 4.63212V9.17974C11.8352 10.1762 11.6544 10.3595 11.2531 10.3595C10.1848 10.3595 7.5918 6.51369 6.05517 2.11219C5.74497 1.25824 5.44195 0.913307 4.63591 0.913307H1.49198C0.594913 0.913307 0.414062 1.32651 0.414062 1.78882C0.414062 2.60564 1.4824 6.66699 5.38207 12.0326C7.98105 15.6952 11.6412 17.6797 14.9707 17.6797C16.9721 17.6797 17.2164 17.239 17.2164 16.4808C17.2164 12.9812 17.0356 12.6506 18.038 12.6506C18.5027 12.6506 19.3028 12.8806 21.1712 14.6472C23.3066 16.7419 23.6576 17.6797 24.8529 17.6797H27.9956C28.8915 17.6797 29.3454 17.239 29.0843 16.3695C28.4866 14.5406 24.448 10.7787 24.266 10.5271V10.5271Z" fill="white"/>
</svg>
