<svg width="30" height="18" viewBox="0 0 30 18" fill="none" xmlns="http://www.w3.org/2000/svg">
<path d="M24.266 10.0652C23.8013 9.47836 23.9342 9.21726 24.266 8.69268C24.272 8.68669 28.1082 3.38573 28.5034 1.588L28.5058 1.5868C28.7022 0.931665 28.5058 0.450195 27.556 0.450195H24.4133C23.6133 0.450195 23.2444 0.863397 23.0467 1.3257C23.0467 1.3257 21.4466 5.15591 19.183 7.63871C18.4524 8.35613 18.1147 8.58608 17.7158 8.58608C17.5194 8.58608 17.214 8.35613 17.214 7.70099V1.5868C17.214 0.801117 16.99 0.450195 16.3277 0.450195H11.3861C10.8842 0.450195 10.586 0.816688 10.586 1.15803C10.586 1.90299 11.7178 2.07426 11.8352 4.17021V8.71783C11.8352 9.7143 11.6544 9.89755 11.2531 9.89755C10.1848 9.89755 7.5918 6.05178 6.05517 1.65028C5.74497 0.796327 5.44195 0.451393 4.63591 0.451393H1.49198C0.594913 0.451393 0.414062 0.864595 0.414062 1.3269C0.414062 2.14372 1.4824 6.20508 5.38207 11.5707C7.98105 15.2332 11.6412 17.2178 14.9707 17.2178C16.9721 17.2178 17.2164 16.7771 17.2164 16.0189C17.2164 12.5193 17.0356 12.1887 18.038 12.1887C18.5027 12.1887 19.3028 12.4187 21.1712 14.1853C23.3066 16.28 23.6576 17.2178 24.8529 17.2178H27.9956C28.8915 17.2178 29.3454 16.7771 29.0843 15.9075C28.4866 14.0787 24.448 10.3167 24.266 10.0652Z" fill="#7E6368"/>
</svg>
