<svg width="448" height="448" viewBox="0 0 448 448" fill="none" xmlns="http://www.w3.org/2000/svg">
<path d="M31.4907 31.4907C0 62.9813 0 113.671 0 215.04V232.96C0 334.329 0 385.019 31.4907 416.509C62.9813 448 113.671 448 215.04 448H232.96C334.329 448 385.019 448 416.509 416.509C448 385.019 448 334.329 448 232.96V215.04C448 113.671 448 62.9813 416.509 31.4907C385.019 0 334.329 0 232.96 0H215.04C113.671 0 62.9813 0 31.4907 31.4907ZM75.6 136.267H126.747C128.427 221.76 166.133 257.973 196 265.44V136.267H244.16V210C273.653 206.827 304.64 173.227 315.093 136.267H363.253C359.313 155.435 351.46 173.583 340.186 189.579C328.913 205.574 314.461 219.071 297.733 229.227C316.41 238.499 332.907 251.63 346.132 267.751C359.357 283.873 369.01 302.618 374.453 322.747H321.44C316.555 305.262 306.614 289.61 292.865 277.754C279.117 265.899 262.173 258.368 244.16 256.107V322.747H238.373C136.267 322.747 78.0267 252.747 75.6 136.267Z" fill="#0071F2"/>
</svg>
